<?xml version="1.0" encoding="utf-8"?>
<!-- Generator: Adobe Illustrator 16.0.0, SVG Export Plug-In . SVG Version: 6.00 Build 0)  -->
<!DOCTYPE svg PUBLIC "-//W3C//DTD SVG 1.1//EN" "http://www.w3.org/Graphics/SVG/1.1/DTD/svg11.dtd">
<svg version="1.1" id="Layer_1" xmlns="http://www.w3.org/2000/svg" xmlns:xlink="http://www.w3.org/1999/xlink" x="0px" y="0px"
	 width="100px" height="74.461px" viewBox="-346.02 281.554 100 74.461" enable-background="new -346.02 281.554 100 74.461"
	 xml:space="preserve">
<path d="M-287.42,281.554c-25.184,0-40.565,7.175-40.565,10.733c0,3.002,11.653,8.849,31.265,10.368v-5.083
	c0-0.886,0.717-1.604,1.602-1.604s1.603,0.719,1.603,1.604v5.273c1.97,0.102,3.983,0.172,6.096,0.18
	c3.893,0.01,7.707-0.148,11.389-0.428v-5.025c0-0.886,0.717-1.604,1.602-1.604c0.886,0,1.603,0.719,1.603,1.604v4.751
	c10.955-1.059,20.424-3.146,26.427-5.088v-8.142C-254.611,286.327-270.005,281.554-287.42,281.554z M-251.405,294.836h-8.121
	c-0.885,0-1.603-0.716-1.603-1.6c0-0.888,0.717-1.604,1.603-1.604h8.121c0.885,0,1.601,0.717,1.601,1.604
	C-249.804,294.119-250.521,294.836-251.405,294.836z"/>
<path d="M-262.747,339.722c-1.842-1.838-4.115-2.771-6.756-2.771c-2.565,0-4.801,0.934-6.642,2.771
	c-1.843,1.835-2.775,4.069-2.775,6.643c0,2.648,0.933,4.922,2.775,6.757c1.841,1.838,4.076,2.772,6.642,2.772
	c2.641,0,4.914-0.935,6.756-2.772c1.841-1.835,2.774-4.107,2.774-6.757C-259.972,343.791-260.905,341.557-262.747,339.722z
	 M-266.705,349.16c-0.78,0.776-1.712,1.167-2.798,1.167c-1.084,0-2.02-0.391-2.796-1.167c-0.776-0.775-1.166-1.708-1.166-2.796
	c0-1.08,0.389-2.02,1.166-2.796c0.776-0.769,1.711-1.165,2.796-1.165c1.086,0,2.018,0.396,2.798,1.165
	c0.776,0.776,1.159,1.716,1.159,2.796C-265.546,347.452-265.928,348.385-266.705,349.16z"/>
<path d="M-319.931,339.891c-1.837-1.798-4.07-2.711-6.636-2.711c-2.642,0-4.914,0.913-6.759,2.711
	c-1.841,1.813-2.776,4.067-2.776,6.7c0,2.567,0.934,4.805,2.775,6.644c1.841,1.845,4.114,2.78,6.76,2.78
	c2.57,0,4.803-0.936,6.639-2.778c1.841-1.839,2.775-4.072,2.775-6.646C-317.154,343.955-318.089,341.7-319.931,339.891z
	 M-323.775,349.398c-0.773,0.777-1.707,1.155-2.792,1.155c-1.089,0-2.019-0.378-2.796-1.155c-0.776-0.779-1.166-1.707-1.166-2.808
	c0-1.079,0.389-2.008,1.166-2.784c0.777-0.779,1.707-1.176,2.796-1.176c1.086,0,2.019,0.396,2.792,1.176
	c0.776,0.776,1.166,1.705,1.166,2.784C-322.61,347.691-322.999,348.619-323.775,349.398z"/>
<path d="M-246.122,340.173l-6.118-24.916c-0.556-2.224-0.926-4.644-4.227-7.562c-2.895-2.561-7.291-2.448-8.454-2.448h-42.21
	c-1.558,0-3.336,0.778-4.115,2.224l-8.928,13.981h-16.31c-3.73,0-6.755,2.777-6.755,6.213v0.994h0.016c0,0.988,0,2.948,0,2.948
	l-0.001,4.391h-2.796v5.478c0,1.936,0.972,2.909,2.915,2.909h2.677c0.233-3.259,1.73-6.037,4.483-8.329
	c2.758-2.285,5.844-3.431,9.26-3.431c3.418,0,6.522,1.146,9.317,3.431c2.796,2.292,4.307,5.07,4.544,8.329h29.579
	c0.232-3.259,1.73-6.056,4.483-8.387c2.758-2.33,5.843-3.487,9.259-3.487c3.417,0,6.52,1.157,9.317,3.487
	c2.794,2.331,4.307,5.128,4.538,8.387h6.505C-246.679,344.285-245.679,342.396-246.122,340.173z M-296.991,320.151
	c0,1.474-0.738,2.213-2.217,2.213h-13.116c-0.802,0-1.208-0.398-1.208-1.198c0-0.281,0.07-0.506,0.201-0.704l4.835-8.404
	c0.519-0.828,1.193-1.074,2.126-1.074h7.164c1.48,0,2.217,0.74,2.217,2.212L-296.991,320.151L-296.991,320.151z M-276.085,320.465
	c0,1.054-0.851,1.905-1.902,1.905h-13.262c-1.054,0-1.904-0.854-1.904-1.905v-7.641c0-1.054,0.851-1.903,1.904-1.903h13.262
	c1.053,0,1.902,0.85,1.902,1.903V320.465z M-260.833,328.188c-1.477,0-2.67-1.194-2.67-2.671c0-1.476,1.193-2.669,2.67-2.669
	c1.476,0,2.669,1.193,2.669,2.669S-259.357,328.188-260.833,328.188z"/>
</svg>
