<svg xmlns="http://www.w3.org/2000/svg" xmlns:xlink="http://www.w3.org/1999/xlink" version="1.1" id="Layer_1" x="0px" y="0px" width="100px" height="100px" viewBox="0 0 100 100" enable-background="new 0 0 100 100" xml:space="preserve">
<g>
	<path d="M16.104,19.645c5.109,2.646,8.487,6.027,8.487,21.396c0,0-1.204,3.617,6.933,5.726c0,0-0.917,1.507-7.548,3.617   c0,0,0.271,9.91-6.666,17.754c0.986-0.15,2.074-0.24,3.3-0.24c5.391,0,8.209,1.665,10.696,3.133   c2.276,1.344,4.242,2.505,8.397,2.505c4.154,0,6.121-1.161,8.396-2.504c2.487-1.469,5.304-3.134,10.695-3.134   s8.209,1.665,10.696,3.133c2.276,1.344,4.242,2.505,8.396,2.505c3.631,0,5.589-0.886,7.544-2.005   c-6.155-4.27-14.361-12.312-20.507-27.023C49.253,6.988,5.857,14.338,16.104,19.645z"/>
	<path d="M2.26,83.241c5.391,0,8.209-1.665,10.696-3.134c2.276-1.343,4.242-2.505,8.396-2.505c4.155,0,6.121,1.162,8.397,2.506   c2.487,1.468,5.305,3.133,10.696,3.133c5.391,0,8.209-1.665,10.695-3.134c2.274-1.343,4.241-2.505,8.396-2.505   s6.12,1.162,8.396,2.506c2.487,1.468,5.306,3.133,10.696,3.133c5.392,0,8.21-1.664,10.697-3.133   c2.276-1.344,4.241-2.506,8.398-2.506c1.249,0,2.26-1.012,2.26-2.26s-1.011-2.261-2.26-2.261c-5.393,0-8.211,1.665-10.698,3.133   c-2.276,1.345-4.241,2.506-8.397,2.506c-4.155,0-6.121-1.161-8.397-2.506c-2.487-1.468-5.305-3.133-10.695-3.133   c-5.392,0-8.209,1.665-10.695,3.133c-2.275,1.345-4.242,2.506-8.396,2.506c-4.155,0-6.121-1.161-8.397-2.506   c-2.487-1.468-5.305-3.133-10.696-3.133c-5.39,0-8.208,1.665-10.695,3.133c-2.276,1.345-4.242,2.506-8.397,2.506   c-1.248,0-2.26,1.012-2.26,2.26S1.012,83.241,2.26,83.241z"/>
	<path d="M97.726,82.265c-5.393,0-8.211,1.665-10.698,3.133c-2.276,1.344-4.242,2.504-8.397,2.504c-4.156,0-6.121-1.16-8.397-2.504   c-2.487-1.468-5.305-3.133-10.695-3.133c-5.392,0-8.21,1.665-10.696,3.134c-2.275,1.343-4.241,2.503-8.396,2.503   c-4.155,0-6.121-1.16-8.396-2.504c-2.487-1.468-5.306-3.133-10.697-3.133c-5.389,0-8.208,1.665-10.695,3.133   c-2.276,1.344-4.241,2.504-8.397,2.504C1.012,87.901,0,88.914,0,90.163c0,1.248,1.012,2.26,2.259,2.26   c5.391,0,8.209-1.665,10.697-3.133c2.276-1.345,4.241-2.506,8.396-2.506c4.156,0,6.122,1.161,8.397,2.507   c2.487,1.467,5.305,3.132,10.696,3.132c5.391,0,8.209-1.665,10.696-3.133c2.274-1.345,4.24-2.506,8.396-2.506   c4.155,0,6.12,1.161,8.396,2.507c2.488,1.467,5.306,3.132,10.697,3.132s8.209-1.664,10.696-3.132   c2.276-1.346,4.242-2.507,8.399-2.507c1.248,0,2.26-1.011,2.26-2.26C99.985,83.276,98.974,82.265,97.726,82.265z"/>
</g>
</svg>