<svg xmlns="http://www.w3.org/2000/svg" xmlns:xlink="http://www.w3.org/1999/xlink" version="1.1" id="Your_Icon" x="0px" y="0px" width="100px" height="100px" viewBox="0 0 100 100" enable-background="new 0 0 100 100" xml:space="preserve">
<g>
	<path fill="#000000" d="M85.844,47.557h-18.07c-0.104-0.546-0.219-1.095-0.342-1.646h10.186c4.82,0,4.82-6.383,0-6.383H69.08   L60.053,25.53c-2.018-3.104-5.441-3.296-5.441-3.296h-1.436c-0.625,0.288-1.285,0.514-1.971,0.67   c-0.035,0.008-0.072,0.014-0.107,0.021c-0.278,0.06-0.561,0.106-0.846,0.143c-0.082,0.01-0.164,0.021-0.246,0.029   c-0.326,0.033-0.656,0.055-0.99,0.055s-0.66-0.022-0.984-0.055c-0.097-0.01-0.192-0.023-0.288-0.036   c-0.243-0.031-0.483-0.072-0.72-0.121c-0.084-0.017-0.17-0.032-0.254-0.052c-0.665-0.156-1.307-0.375-1.916-0.655h-1.189   c0,0-3.424,0.165-5.441,3.269l-3.01,4.666h-6.226V16.806h10.722c-0.373-0.939-0.604-1.947-0.674-3H25.986v19.362h7.292   l-4.084,6.333h-3.537c-4.82,0-4.82,6.383,0,6.383h4.765c-0.126,0.56-0.242,1.118-0.348,1.673H14.157c-0.828,0-1.5,0.671-1.5,1.5   s0.672,1.5,1.5,1.5h15.449c-0.194,1.551-0.309,3.056-0.309,4.454c0,5.744,0.712,12.896,6.262,17.264l0.408,0.321h11.533v11.791   h-9.266l-0.445,2.425c-2.115,0.119-3.805,1.862-3.805,4.007c0,2.222,1.807,4.029,4.029,4.029c2.221,0,4.029-1.808,4.029-4.029   c0-1.205-0.543-2.276-1.385-3.016l0.076-0.416h6.1c-1.161,0.708-1.945,1.975-1.945,3.432c0,2.222,1.807,4.029,4.029,4.029   c2.221,0,4.03-1.808,4.03-4.029c0-1.457-0.785-2.724-1.947-3.432h6.293l0.051,0.276c-0.939,0.738-1.555,1.871-1.555,3.155   c0,2.222,1.807,4.029,4.029,4.029c2.221,0,4.029-1.808,4.029-4.029c0-2.077-1.586-3.771-3.607-3.986l-0.447-2.445h-9.293V72.596   h11.024l0.4-0.302c5.871-4.424,6.625-11.561,6.625-17.283c0-1.398-0.115-2.903-0.309-4.454h17.602c0.828,0,1.5-0.671,1.5-1.5   S86.672,47.557,85.844,47.557z M38.015,91.848c-0.568,0-1.029-0.462-1.029-1.029s0.461-1.029,1.029-1.029   c0.566,0,1.029,0.462,1.029,1.029S38.582,91.848,38.015,91.848z M59.82,89.789c0.566,0,1.029,0.462,1.029,1.029   s-0.463,1.029-1.029,1.029c-0.568,0-1.029-0.462-1.029-1.029S59.252,89.789,59.82,89.789z M48.919,91.848   c-0.568,0-1.029-0.462-1.029-1.029s0.461-1.029,1.029-1.029c0.566,0,1.029,0.462,1.029,1.029S49.486,91.848,48.919,91.848z    M60.506,69.596H37.023c-3.307-2.837-4.725-7.241-4.725-14.585c0-5.738,1.862-13.262,4.743-19.167   c1.941-3.976,6.064-10.646,11.885-10.646c5.819,0,9.942,6.67,11.881,10.646c2.883,5.905,4.744,13.428,4.744,19.167   C65.551,62.317,64.037,66.72,60.506,69.596z"/>
	<circle fill="#000000" cx="49.015" cy="13.152" r="8"/>
	<g>
		<path fill="#000000" d="M39.931,65.319c-0.828,0-1.5-0.672-1.5-1.5V39.896c0-0.829,0.672-1.5,1.5-1.5s1.5,0.671,1.5,1.5v23.923    C41.431,64.647,40.759,65.319,39.931,65.319z"/>
		<path fill="#000000" d="M49.015,65.319c-0.828,0-1.5-0.672-1.5-1.5V39.896c0-0.829,0.672-1.5,1.5-1.5s1.5,0.671,1.5,1.5v23.923    C50.515,64.647,49.843,65.319,49.015,65.319z"/>
		<path fill="#000000" d="M58.098,65.319c-0.828,0-1.5-0.672-1.5-1.5V39.896c0-0.829,0.672-1.5,1.5-1.5s1.5,0.671,1.5,1.5v23.923    C59.598,64.647,58.926,65.319,58.098,65.319z"/>
	</g>
	<path fill="#000000" d="M53.494,33.19H44.73c-0.828,0-1.5-0.671-1.5-1.5s0.672-1.5,1.5-1.5h8.764c0.828,0,1.5,0.671,1.5,1.5   S54.322,33.19,53.494,33.19z"/>
</g>
</svg>